<svg width="21" height="11" viewBox="0 0 21 11" fill="none" xmlns="http://www.w3.org/2000/svg">
<path d="M7.78395 9.90922H5.23997C4.68317 9.90922 4.13182 9.80172 3.6174 9.59285C3.10299 9.38399 2.63558 9.07785 2.24186 8.69191C1.44671 7.91249 1 6.85535 1 5.75307C1 4.65079 1.44671 3.59366 2.24186 2.81423C3.03701 2.0348 4.11546 1.59692 5.23997 1.59692H7.78395M12.8719 1.59692H15.4159C15.9727 1.59692 16.524 1.70443 17.0385 1.91329C17.5529 2.12216 18.0203 2.4283 18.414 2.81423C18.8077 3.20017 19.12 3.65834 19.3331 4.16258C19.5462 4.66683 19.6559 5.20728 19.6559 5.75307C19.6559 6.29887 19.5462 6.83932 19.3331 7.34356C19.12 7.84781 18.8077 8.30598 18.414 8.69191C18.0203 9.07785 17.5529 9.38399 17.0385 9.59285C16.524 9.80172 15.9727 9.90922 15.4159 9.90922H12.8719V1.59692Z" stroke="white" stroke-width="2" stroke-linecap="round" stroke-linejoin="round"/>
<path d="M6.93555 5.75317H13.7195" stroke="white" stroke-width="2" stroke-linecap="round" stroke-linejoin="round"/>
</svg>
