<svg width="56" height="56" viewBox="0 0 56 56" fill="none" xmlns="http://www.w3.org/2000/svg">
<path d="M53 47.4444C53 50.5127 50.5127 53 47.4444 53C44.3762 53 41.8889 50.5127 41.8889 47.4444C41.8889 44.3762 44.3762 41.8889 47.4444 41.8889C50.5127 41.8889 53 44.3762 53 47.4444Z" fill="white"/>
<path d="M14.1111 8.55556C14.1111 11.6238 11.6238 14.1111 8.55556 14.1111C5.48731 14.1111 3 11.6238 3 8.55556C3 5.48731 5.48731 3 8.55556 3C11.6238 3 14.1111 5.48731 14.1111 8.55556Z" fill="white"/>
<path d="M53 8.55556C53 11.6238 50.5127 14.1111 47.4444 14.1111C44.3762 14.1111 41.8889 11.6238 41.8889 8.55556C41.8889 5.48731 44.3762 3 47.4444 3C50.5127 3 53 5.48731 53 8.55556Z" fill="white"/>
<path d="M14.1111 47.4444C14.1111 50.5127 11.6238 53 8.55556 53C5.48731 53 3 50.5127 3 47.4444C3 44.3762 5.48731 41.8889 8.55556 41.8889C11.6238 41.8889 14.1111 44.3762 14.1111 47.4444Z" fill="white"/>
<path d="M41.8889 47.4444C41.8889 50.5127 44.3762 53 47.4444 53C50.5127 53 53 50.5127 53 47.4444C53 44.3762 50.5127 41.8889 47.4444 41.8889C44.3762 41.8889 41.8889 44.3762 41.8889 47.4444ZM41.8889 47.4444L14.1111 47.4444M8.55556 14.1111C11.6238 14.1111 14.1111 11.6238 14.1111 8.55556M8.55556 14.1111C5.48731 14.1111 3 11.6238 3 8.55556C3 5.48731 5.48731 3 8.55556 3C11.6238 3 14.1111 5.48731 14.1111 8.55556M8.55556 14.1111V41.8889M8.55556 41.8889C5.48731 41.8889 3 44.3762 3 47.4444C3 50.5127 5.48731 53 8.55556 53C11.6238 53 14.1111 50.5127 14.1111 47.4444M8.55556 41.8889C11.6238 41.8889 14.1111 44.3762 14.1111 47.4444M47.4591 41.8889L47.4444 28V14.1111M47.4444 14.1111C50.5127 14.1111 53 11.6238 53 8.55556C53 5.48731 50.5127 3 47.4444 3C44.3762 3 41.8889 5.48731 41.8889 8.55556M47.4444 14.1111C44.3762 14.1111 41.8889 11.6238 41.8889 8.55556M41.8889 8.55556H14.1111" stroke="white" stroke-width="5"/>
</svg>
