<svg width="202" height="332" viewBox="0 0 202 332" fill="none" xmlns="http://www.w3.org/2000/svg">
<path fill-rule="evenodd" clip-rule="evenodd" d="M191.644 275.098C198.068 271.168 202 264.19 202 256.674V228.674C202 223.693 202 203.315 194.129 207.44L188.422 210.745L93.6952 265.95C88.1521 269.171 84.736 275.098 84.736 291.674V321.178C84.7145 327.147 89.5486 332 95.5214 332C97.5195 332 99.4961 331.442 101.193 330.411L191.644 275.098ZM50.4463 195.456C44.9032 198.677 41.5086 204.625 41.4871 211.024V299.233C41.4871 301.831 42.8836 304.236 45.161 305.503L65.8938 317.162C66.1516 317.313 66.431 317.42 66.7318 317.506V268.527C66.7318 262.193 70.0619 256.309 75.519 253.046L158.708 203.315V148.023C158.708 143.042 154.648 139.005 149.663 139.026C148.073 139.026 146.505 139.456 145.13 140.25L50.4463 195.456ZM10.1838 56.2065C4.6192 59.4274 1.20314 65.3753 1.20314 71.7956L0 274.733C0.0214844 277.374 1.48244 279.8 3.8028 281.067L23.4614 291.674V201.984C23.4614 195.649 26.7915 189.787 32.2057 186.524L117.242 135.548C117.242 135.548 117.242 84.7007 117.242 83.1117C117.242 81.5228 118.016 5.85334 117.242 4.4791C114.729 0.184584 109.207 -1.27555 104.91 1.21526L10.1838 56.2065Z" fill="#DEDEDE"/>
</svg>
