<svg width="56" height="47" viewBox="0 0 56 47" fill="none" xmlns="http://www.w3.org/2000/svg">
<path d="M39.3628 43.9083V39.3629C39.3628 36.9519 38.4051 34.6397 36.7002 32.9348C34.9954 31.23 32.6831 30.2722 30.2721 30.2722H12.0907C9.6797 30.2722 7.36745 31.23 5.66261 32.9348C3.95777 34.6397 3 36.9519 3 39.3629V43.9083" stroke="white" stroke-width="5" stroke-linecap="round" stroke-linejoin="round"/>
<path d="M21.1825 21.1814C26.2032 21.1814 30.2732 17.1114 30.2732 12.0907C30.2732 7.07005 26.2032 3 21.1825 3C16.1618 3 12.0918 7.07005 12.0918 12.0907C12.0918 17.1114 16.1618 21.1814 21.1825 21.1814Z" stroke="white" stroke-width="5" stroke-linecap="round" stroke-linejoin="round"/>
<path d="M52.9997 43.9082V39.3629C52.9982 37.3487 52.3278 35.392 51.0937 33.8001C49.8597 32.2082 48.1319 31.0712 46.1816 30.5676" stroke="white" stroke-width="5" stroke-linecap="round" stroke-linejoin="round"/>
<path d="M37.0898 3.29541C39.0453 3.79608 40.7785 4.93333 42.0162 6.52786C43.2539 8.12239 43.9257 10.0835 43.9257 12.102C43.9257 14.1206 43.2539 16.0817 42.0162 17.6762C40.7785 19.2707 39.0453 20.408 37.0898 20.9087" stroke="white" stroke-width="5" stroke-linecap="round" stroke-linejoin="round"/>
</svg>
