<svg width="51" height="51" viewBox="0 0 51 51" fill="none" xmlns="http://www.w3.org/2000/svg">
<path fill-rule="evenodd" clip-rule="evenodd" d="M0.951172 25.9792C0.951172 12.1721 12.1441 0.979248 25.9512 0.979248C39.7583 0.979248 50.9512 12.1721 50.9512 25.9792C50.9512 39.7864 39.7583 50.9792 25.9512 50.9792C12.1441 50.9792 0.951172 39.7864 0.951172 25.9792ZM22.845 9.86971C24.5397 9.54296 25.9512 10.9721 25.9512 12.698L25.9512 39.2605C25.9512 40.9864 24.5397 42.4155 22.845 42.0888C21.7608 41.8797 20.6978 41.5612 19.6728 41.1366C17.6823 40.3122 15.8737 39.1037 14.3502 37.5802C12.8267 36.0568 11.6183 34.2481 10.7938 32.2576C9.96927 30.2672 9.54491 28.1337 9.54491 25.9792C9.54491 23.8247 9.96927 21.6913 10.7938 19.7008C11.6183 17.7103 12.8267 15.9017 14.3502 14.3783C15.8736 12.8548 17.6823 11.6463 19.6728 10.8218C20.6978 10.3972 21.7608 10.0788 22.845 9.86971Z" fill="white"/>
</svg>
