<svg width="40" height="30" viewBox="0 0 40 30" fill="none" xmlns="http://www.w3.org/2000/svg">
<path d="M35.7984 7.54266C35.8226 7.86178 35.8226 8.18089 35.8226 8.50295C35.8226 18.3162 27.629 29.6338 12.6468 29.6338V29.628C8.22097 29.6338 3.8871 28.478 0.161293 26.2985C0.804841 26.3691 1.45162 26.4044 2.1 26.4059C5.76774 26.4088 9.33065 25.2868 12.2161 23.2206C8.73065 23.1603 5.6742 21.0882 4.60645 18.0632C5.82742 18.278 7.08549 18.2338 8.28387 17.9353C4.48387 17.2353 1.75 14.1912 1.75 10.6559V10.5618C2.88226 11.1368 4.15 11.4559 5.44678 11.4912C1.86774 9.31031 0.764519 4.96913 2.92581 1.57501C7.06129 6.21472 13.1629 9.03531 19.7129 9.33384C19.0565 6.75442 19.9532 4.05148 22.0694 2.23825C25.35 -0.573517 30.5097 -0.429399 33.5936 2.56031C35.4177 2.23237 37.1661 1.62207 38.7661 0.757366C38.1581 2.47648 36.8855 3.93678 35.1855 4.86472C36.8 4.69119 38.3774 4.29707 39.8629 3.6956C38.7694 5.18972 37.3919 6.49119 35.7984 7.54266Z" fill="white"/>
</svg>
